<?xml version="1.0" encoding="UTF-8"?>
<svg id="Layer_2" data-name="Layer 2" xmlns="http://www.w3.org/2000/svg" viewBox="0 0 16.23 25">
  <defs>
    <style>
      .cls-1 {
        fill: #948671;
      }

      .cls-2 {
        fill: #425968;
      }
    </style>
  </defs>
  <g id="Layer_1-2" data-name="Layer 1">
    <path class="cls-1" d="M.36,7.49c2.18-2.72,7.14-4.28,15.7-4.34.09,0,.17-.08.17-.17V.24c0-.09-.07-.16-.16-.17C7.2-.49.75,2.3.06,7.37c-.02.17.19.26.3.12"/>
    <path class="cls-1" d="M.36,12.44c2.18-2.72,7.14-4.28,15.7-4.34.09,0,.17-.08.17-.17v-2.74c0-.09-.07-.16-.16-.17C7.2,4.46.75,7.25.06,12.32c-.02.17.19.26.3.12"/>
    <path class="cls-2" d="M14.79,24.99c-2.64-.12-5.23-.45-7.78-1.14-.95-.26-1.9-.54-2.78-.98-.86-.43-1.71-.89-2.42-1.56-1.9-1.81-2.31-4.31-1.18-6.43.54-1,1.34-1.78,2.33-2.39,1.3-1,7.02-3.07,12.96-2.83.23,0,.31.06.3.3-.02.76-.02,1.52,0,2.27,0,.22-.05.29-.28.29-1.8-.02-3.59.13-5.37.38-2.72.39-5.35,1.1-7.81,2.37-.79.41-1.48.89-1.98,1.61-.45.65-.44,1.29.02,1.93.25.35.54.65.9.91.88.63,1.85,1.06,2.83,1.5.63.28,1.29.46,1.93.69.52.19,1.12.28,1.68.41.53.12,1.07.21,1.6.32.92.2,1.85.22,2.78.35,1.1.15,2.22.14,3.32.16.31,0,.39.1.37.39-.02.41-.01.82,0,1.23,0,.18-.04.24-.24.23-.4-.02-.8,0-1.19,0"/>
  </g>
</svg>